<svg width="25" height="25" viewBox="0 0 25 25" fill="none" xmlns="http://www.w3.org/2000/svg">
<path d="M6.84302 2.9716L3.84302 6.9716V20.9716C3.84302 21.502 4.05373 22.0107 4.4288 22.3858C4.80388 22.7609 5.31258 22.9716 5.84302 22.9716H19.843C20.3735 22.9716 20.8822 22.7609 21.2572 22.3858C21.6323 22.0107 21.843 21.502 21.843 20.9716V6.9716L18.843 2.9716H6.84302Z" stroke="black" stroke-width="2" stroke-linecap="round" stroke-linejoin="round"/>
<path d="M3.84302 6.9716H21.843" stroke="black" stroke-width="2" stroke-linecap="round" stroke-linejoin="round"/>
<path d="M16.843 10.9716C16.843 12.0325 16.4216 13.0499 15.6714 13.8C14.9213 14.5502 13.9039 14.9716 12.843 14.9716C11.7822 14.9716 10.7647 14.5502 10.0146 13.8C9.26444 13.0499 8.84302 12.0325 8.84302 10.9716" stroke="black" stroke-width="2" stroke-linecap="round" stroke-linejoin="round"/>
</svg>
